<mxfile host="Electron" modified="2023-10-22T01:12:55.857Z" agent="Mozilla/5.0 (Windows NT 10.0; Win64; x64) AppleWebKit/537.36 (KHTML, like Gecko) draw.io/22.0.3 Chrome/114.0.5735.289 Electron/25.8.4 Safari/537.36" etag="EoI-wyoDefiGqja_FPfr" version="22.0.3" type="device">
  <diagram name="PÃ¡gina-1" id="sW1KA7AYZyVYEQ3tkRH6">
    <mxGraphModel dx="880" dy="532" grid="1" gridSize="5" guides="1" tooltips="1" connect="1" arrows="1" fold="1" page="1" pageScale="1" pageWidth="900" pageHeight="1600" math="0" shadow="0">
      <root>
        <mxCell id="0" />
        <mxCell id="1" parent="0" />
        <mxCell id="k_RozOxkvB2d1GZJaJB8-33" value="Pool" style="swimlane;childLayout=stackLayout;resizeParent=1;resizeParentMax=0;startSize=25;html=1;" parent="1" vertex="1">
          <mxGeometry x="30" y="5" width="840" height="1030" as="geometry" />
        </mxCell>
        <mxCell id="k_RozOxkvB2d1GZJaJB8-34" value="Cliente" style="swimlane;startSize=20;html=1;" parent="k_RozOxkvB2d1GZJaJB8-33" vertex="1">
          <mxGeometry y="25" width="120" height="1005" as="geometry" />
        </mxCell>
        <mxCell id="0ESUHfkSwqAkpGN6ZAxh-2" value="1" style="ellipse;whiteSpace=wrap;html=1;aspect=fixed;" vertex="1" parent="k_RozOxkvB2d1GZJaJB8-34">
          <mxGeometry x="47.5" y="30" width="25" height="25" as="geometry" />
        </mxCell>
        <mxCell id="0ESUHfkSwqAkpGN6ZAxh-28" value="NV3" style="shape=document;whiteSpace=wrap;html=1;boundedLbl=1;" vertex="1" parent="k_RozOxkvB2d1GZJaJB8-34">
          <mxGeometry x="45" y="140" width="30" height="25" as="geometry" />
        </mxCell>
        <mxCell id="0ESUHfkSwqAkpGN6ZAxh-29" value="NV1" style="shape=document;whiteSpace=wrap;html=1;boundedLbl=1;" vertex="1" parent="k_RozOxkvB2d1GZJaJB8-34">
          <mxGeometry x="35" y="150" width="30" height="25" as="geometry" />
        </mxCell>
        <mxCell id="0ESUHfkSwqAkpGN6ZAxh-44" value="NV1" style="shape=document;whiteSpace=wrap;html=1;boundedLbl=1;" vertex="1" parent="k_RozOxkvB2d1GZJaJB8-34">
          <mxGeometry x="37.5" y="265" width="30" height="25" as="geometry" />
        </mxCell>
        <mxCell id="0ESUHfkSwqAkpGN6ZAxh-45" value="" style="endArrow=none;html=1;rounded=0;" edge="1" parent="k_RozOxkvB2d1GZJaJB8-34">
          <mxGeometry width="50" height="50" relative="1" as="geometry">
            <mxPoint x="50" y="260" as="sourcePoint" />
            <mxPoint x="72.5" y="285" as="targetPoint" />
          </mxGeometry>
        </mxCell>
        <mxCell id="0ESUHfkSwqAkpGN6ZAxh-86" value="NV1" style="shape=document;whiteSpace=wrap;html=1;boundedLbl=1;" vertex="1" parent="k_RozOxkvB2d1GZJaJB8-34">
          <mxGeometry x="35" y="650" width="30" height="25" as="geometry" />
        </mxCell>
        <mxCell id="0ESUHfkSwqAkpGN6ZAxh-87" value="" style="endArrow=none;html=1;rounded=0;" edge="1" parent="k_RozOxkvB2d1GZJaJB8-34">
          <mxGeometry width="50" height="50" relative="1" as="geometry">
            <mxPoint x="47.5" y="645" as="sourcePoint" />
            <mxPoint x="70" y="670" as="targetPoint" />
            <Array as="points">
              <mxPoint x="60" y="655" />
            </Array>
          </mxGeometry>
        </mxCell>
        <mxCell id="0ESUHfkSwqAkpGN6ZAxh-88" value="" style="endArrow=none;html=1;rounded=0;" edge="1" parent="k_RozOxkvB2d1GZJaJB8-34">
          <mxGeometry width="50" height="50" relative="1" as="geometry">
            <mxPoint x="40" y="645" as="sourcePoint" />
            <mxPoint x="70" y="680" as="targetPoint" />
            <Array as="points" />
          </mxGeometry>
        </mxCell>
        <mxCell id="0ESUHfkSwqAkpGN6ZAxh-89" value="" style="shape=cube;whiteSpace=wrap;html=1;boundedLbl=1;backgroundOutline=1;darkOpacity=0.05;darkOpacity2=0.1;size=15;" vertex="1" parent="k_RozOxkvB2d1GZJaJB8-34">
          <mxGeometry x="60" y="620" width="35" height="35" as="geometry" />
        </mxCell>
        <mxCell id="k_RozOxkvB2d1GZJaJB8-35" value="Vendedor" style="swimlane;startSize=20;html=1;" parent="k_RozOxkvB2d1GZJaJB8-33" vertex="1">
          <mxGeometry x="120" y="25" width="130" height="1005" as="geometry" />
        </mxCell>
        <mxCell id="0ESUHfkSwqAkpGN6ZAxh-4" value="2" style="ellipse;whiteSpace=wrap;html=1;aspect=fixed;" vertex="1" parent="k_RozOxkvB2d1GZJaJB8-35">
          <mxGeometry x="22.5" y="30" width="25" height="25" as="geometry" />
        </mxCell>
        <mxCell id="0ESUHfkSwqAkpGN6ZAxh-17" value="NV4" style="shape=document;whiteSpace=wrap;html=1;boundedLbl=1;" vertex="1" parent="k_RozOxkvB2d1GZJaJB8-35">
          <mxGeometry x="80" y="40" width="30" height="25" as="geometry" />
        </mxCell>
        <mxCell id="0ESUHfkSwqAkpGN6ZAxh-5" value="NV3" style="shape=document;whiteSpace=wrap;html=1;boundedLbl=1;" vertex="1" parent="k_RozOxkvB2d1GZJaJB8-35">
          <mxGeometry x="72.5" y="55" width="30" height="25" as="geometry" />
        </mxCell>
        <mxCell id="0ESUHfkSwqAkpGN6ZAxh-19" value="NV2" style="shape=document;whiteSpace=wrap;html=1;boundedLbl=1;" vertex="1" parent="k_RozOxkvB2d1GZJaJB8-35">
          <mxGeometry x="60" y="65" width="30" height="25" as="geometry" />
        </mxCell>
        <mxCell id="0ESUHfkSwqAkpGN6ZAxh-18" value="NV1" style="shape=document;whiteSpace=wrap;html=1;boundedLbl=1;" vertex="1" parent="k_RozOxkvB2d1GZJaJB8-35">
          <mxGeometry x="47.5" y="75" width="30" height="25" as="geometry" />
        </mxCell>
        <mxCell id="0ESUHfkSwqAkpGN6ZAxh-21" value="" style="triangle;whiteSpace=wrap;html=1;rotation=-90;" vertex="1" parent="k_RozOxkvB2d1GZJaJB8-35">
          <mxGeometry x="95" y="105" width="27.5" height="35" as="geometry" />
        </mxCell>
        <mxCell id="0ESUHfkSwqAkpGN6ZAxh-22" value="t" style="text;html=1;strokeColor=none;fillColor=none;align=center;verticalAlign=middle;whiteSpace=wrap;rounded=0;" vertex="1" parent="k_RozOxkvB2d1GZJaJB8-35">
          <mxGeometry x="95" y="120" width="30" height="15" as="geometry" />
        </mxCell>
        <mxCell id="0ESUHfkSwqAkpGN6ZAxh-27" style="edgeStyle=orthogonalEdgeStyle;rounded=0;orthogonalLoop=1;jettySize=auto;html=1;" edge="1" parent="k_RozOxkvB2d1GZJaJB8-35" source="0ESUHfkSwqAkpGN6ZAxh-24">
          <mxGeometry relative="1" as="geometry">
            <mxPoint x="-40" y="150" as="targetPoint" />
          </mxGeometry>
        </mxCell>
        <mxCell id="0ESUHfkSwqAkpGN6ZAxh-30" style="edgeStyle=orthogonalEdgeStyle;rounded=0;orthogonalLoop=1;jettySize=auto;html=1;" edge="1" parent="k_RozOxkvB2d1GZJaJB8-35" source="0ESUHfkSwqAkpGN6ZAxh-24">
          <mxGeometry relative="1" as="geometry">
            <mxPoint x="301.14285714285717" y="150" as="targetPoint" />
          </mxGeometry>
        </mxCell>
        <mxCell id="0ESUHfkSwqAkpGN6ZAxh-24" value="" style="ellipse;whiteSpace=wrap;html=1;aspect=fixed;" vertex="1" parent="k_RozOxkvB2d1GZJaJB8-35">
          <mxGeometry x="20" y="135" width="30" height="30" as="geometry" />
        </mxCell>
        <mxCell id="0ESUHfkSwqAkpGN6ZAxh-23" style="edgeStyle=orthogonalEdgeStyle;rounded=0;orthogonalLoop=1;jettySize=auto;html=1;" edge="1" parent="k_RozOxkvB2d1GZJaJB8-35" source="0ESUHfkSwqAkpGN6ZAxh-4" target="0ESUHfkSwqAkpGN6ZAxh-24">
          <mxGeometry relative="1" as="geometry">
            <mxPoint x="35" y="140" as="targetPoint" />
          </mxGeometry>
        </mxCell>
        <mxCell id="0ESUHfkSwqAkpGN6ZAxh-25" value="" style="endArrow=none;html=1;rounded=0;entryX=0.5;entryY=0;entryDx=0;entryDy=0;exitX=0;exitY=1;exitDx=0;exitDy=0;" edge="1" parent="k_RozOxkvB2d1GZJaJB8-35" source="0ESUHfkSwqAkpGN6ZAxh-24" target="0ESUHfkSwqAkpGN6ZAxh-24">
          <mxGeometry width="50" height="50" relative="1" as="geometry">
            <mxPoint x="15" y="140" as="sourcePoint" />
            <mxPoint x="65" y="90" as="targetPoint" />
          </mxGeometry>
        </mxCell>
        <mxCell id="0ESUHfkSwqAkpGN6ZAxh-26" value="" style="endArrow=none;html=1;rounded=0;entryX=0.5;entryY=0;entryDx=0;entryDy=0;exitX=1;exitY=1;exitDx=0;exitDy=0;" edge="1" parent="k_RozOxkvB2d1GZJaJB8-35" source="0ESUHfkSwqAkpGN6ZAxh-24" target="0ESUHfkSwqAkpGN6ZAxh-24">
          <mxGeometry width="50" height="50" relative="1" as="geometry">
            <mxPoint x="15" y="140" as="sourcePoint" />
            <mxPoint x="65" y="90" as="targetPoint" />
          </mxGeometry>
        </mxCell>
        <mxCell id="k_RozOxkvB2d1GZJaJB8-36" value="Caja" style="swimlane;startSize=20;html=1;" parent="k_RozOxkvB2d1GZJaJB8-33" vertex="1">
          <mxGeometry x="250" y="25" width="135" height="1005" as="geometry" />
        </mxCell>
        <mxCell id="0ESUHfkSwqAkpGN6ZAxh-34" value="NV3" style="shape=document;whiteSpace=wrap;html=1;boundedLbl=1;" vertex="1" parent="k_RozOxkvB2d1GZJaJB8-36">
          <mxGeometry x="60" y="200" width="30" height="25" as="geometry" />
        </mxCell>
        <mxCell id="0ESUHfkSwqAkpGN6ZAxh-41" style="edgeStyle=orthogonalEdgeStyle;rounded=0;orthogonalLoop=1;jettySize=auto;html=1;" edge="1" parent="k_RozOxkvB2d1GZJaJB8-36" source="0ESUHfkSwqAkpGN6ZAxh-35">
          <mxGeometry relative="1" as="geometry">
            <mxPoint x="65" y="265" as="targetPoint" />
          </mxGeometry>
        </mxCell>
        <mxCell id="0ESUHfkSwqAkpGN6ZAxh-35" value="NV1" style="shape=document;whiteSpace=wrap;html=1;boundedLbl=1;" vertex="1" parent="k_RozOxkvB2d1GZJaJB8-36">
          <mxGeometry x="50" y="210" width="30" height="25" as="geometry" />
        </mxCell>
        <mxCell id="0ESUHfkSwqAkpGN6ZAxh-37" value="" style="endArrow=none;html=1;rounded=0;" edge="1" parent="k_RozOxkvB2d1GZJaJB8-36">
          <mxGeometry width="50" height="50" relative="1" as="geometry">
            <mxPoint x="62.5" y="205" as="sourcePoint" />
            <mxPoint x="85" y="230" as="targetPoint" />
          </mxGeometry>
        </mxCell>
        <mxCell id="0ESUHfkSwqAkpGN6ZAxh-39" value="" style="triangle;whiteSpace=wrap;html=1;rotation=-90;" vertex="1" parent="k_RozOxkvB2d1GZJaJB8-36">
          <mxGeometry x="100" y="250" width="27.5" height="35" as="geometry" />
        </mxCell>
        <mxCell id="0ESUHfkSwqAkpGN6ZAxh-40" value="t" style="text;html=1;strokeColor=none;fillColor=none;align=center;verticalAlign=middle;whiteSpace=wrap;rounded=0;" vertex="1" parent="k_RozOxkvB2d1GZJaJB8-36">
          <mxGeometry x="100" y="265" width="30" height="15" as="geometry" />
        </mxCell>
        <mxCell id="0ESUHfkSwqAkpGN6ZAxh-43" style="edgeStyle=orthogonalEdgeStyle;rounded=0;orthogonalLoop=1;jettySize=auto;html=1;" edge="1" parent="k_RozOxkvB2d1GZJaJB8-36" source="0ESUHfkSwqAkpGN6ZAxh-42">
          <mxGeometry relative="1" as="geometry">
            <mxPoint x="-180" y="277.5" as="targetPoint" />
          </mxGeometry>
        </mxCell>
        <mxCell id="0ESUHfkSwqAkpGN6ZAxh-42" value="3" style="ellipse;whiteSpace=wrap;html=1;aspect=fixed;" vertex="1" parent="k_RozOxkvB2d1GZJaJB8-36">
          <mxGeometry x="52.5" y="265" width="25" height="25" as="geometry" />
        </mxCell>
        <mxCell id="0ESUHfkSwqAkpGN6ZAxh-83" value="&lt;font color=&quot;#f10404&quot;&gt;Final del dÃ­a&lt;/font&gt;" style="text;html=1;strokeColor=none;fillColor=none;align=center;verticalAlign=middle;whiteSpace=wrap;rounded=0;" vertex="1" parent="k_RozOxkvB2d1GZJaJB8-36">
          <mxGeometry x="20" y="670" width="60" height="30" as="geometry" />
        </mxCell>
        <mxCell id="0ESUHfkSwqAkpGN6ZAxh-82" value="" style="endArrow=none;dashed=1;html=1;strokeWidth=2;rounded=0;dashPattern=12 12;fillColor=#e51400;strokeColor=#B20000;" edge="1" parent="k_RozOxkvB2d1GZJaJB8-36">
          <mxGeometry width="50" height="50" relative="1" as="geometry">
            <mxPoint x="-272.2857142857143" y="705" as="sourcePoint" />
            <mxPoint x="560" y="705" as="targetPoint" />
          </mxGeometry>
        </mxCell>
        <mxCell id="0ESUHfkSwqAkpGN6ZAxh-90" value="NV3" style="shape=document;whiteSpace=wrap;html=1;boundedLbl=1;" vertex="1" parent="k_RozOxkvB2d1GZJaJB8-36">
          <mxGeometry x="45" y="725" width="30" height="25" as="geometry" />
        </mxCell>
        <mxCell id="0ESUHfkSwqAkpGN6ZAxh-91" value="" style="endArrow=none;html=1;rounded=0;" edge="1" parent="k_RozOxkvB2d1GZJaJB8-36">
          <mxGeometry width="50" height="50" relative="1" as="geometry">
            <mxPoint x="60" y="720" as="sourcePoint" />
            <mxPoint x="85" y="735" as="targetPoint" />
          </mxGeometry>
        </mxCell>
        <mxCell id="0ESUHfkSwqAkpGN6ZAxh-92" value="NV3" style="shape=document;whiteSpace=wrap;html=1;boundedLbl=1;" vertex="1" parent="k_RozOxkvB2d1GZJaJB8-36">
          <mxGeometry x="30" y="735" width="30" height="25" as="geometry" />
        </mxCell>
        <mxCell id="0ESUHfkSwqAkpGN6ZAxh-93" value="" style="endArrow=none;html=1;rounded=0;" edge="1" parent="k_RozOxkvB2d1GZJaJB8-36">
          <mxGeometry width="50" height="50" relative="1" as="geometry">
            <mxPoint x="45" y="730" as="sourcePoint" />
            <mxPoint x="70" y="745" as="targetPoint" />
          </mxGeometry>
        </mxCell>
        <mxCell id="0ESUHfkSwqAkpGN6ZAxh-94" value="NV3" style="shape=document;whiteSpace=wrap;html=1;boundedLbl=1;" vertex="1" parent="k_RozOxkvB2d1GZJaJB8-36">
          <mxGeometry x="15" y="745" width="30" height="25" as="geometry" />
        </mxCell>
        <mxCell id="0ESUHfkSwqAkpGN6ZAxh-95" value="" style="endArrow=none;html=1;rounded=0;" edge="1" parent="k_RozOxkvB2d1GZJaJB8-36">
          <mxGeometry width="50" height="50" relative="1" as="geometry">
            <mxPoint x="30" y="740" as="sourcePoint" />
            <mxPoint x="55" y="755" as="targetPoint" />
          </mxGeometry>
        </mxCell>
        <mxCell id="0ESUHfkSwqAkpGN6ZAxh-98" style="edgeStyle=orthogonalEdgeStyle;rounded=0;orthogonalLoop=1;jettySize=auto;html=1;" edge="1" parent="k_RozOxkvB2d1GZJaJB8-36" source="0ESUHfkSwqAkpGN6ZAxh-96">
          <mxGeometry relative="1" as="geometry">
            <mxPoint x="315" y="782.5" as="targetPoint" />
          </mxGeometry>
        </mxCell>
        <mxCell id="0ESUHfkSwqAkpGN6ZAxh-96" value="5" style="ellipse;whiteSpace=wrap;html=1;aspect=fixed;" vertex="1" parent="k_RozOxkvB2d1GZJaJB8-36">
          <mxGeometry x="52.5" y="770" width="25" height="25" as="geometry" />
        </mxCell>
        <mxCell id="0ESUHfkSwqAkpGN6ZAxh-97" value="$" style="shape=tape;whiteSpace=wrap;html=1;strokeWidth=2;size=0.19" vertex="1" parent="k_RozOxkvB2d1GZJaJB8-36">
          <mxGeometry x="85" y="750" width="35" height="25" as="geometry" />
        </mxCell>
        <mxCell id="k_RozOxkvB2d1GZJaJB8-38" value="Empaque" style="swimlane;startSize=20;html=1;" parent="k_RozOxkvB2d1GZJaJB8-33" vertex="1">
          <mxGeometry x="385" y="25" width="140" height="1005" as="geometry" />
        </mxCell>
        <mxCell id="0ESUHfkSwqAkpGN6ZAxh-31" value="NV2" style="shape=document;whiteSpace=wrap;html=1;boundedLbl=1;" vertex="1" parent="k_RozOxkvB2d1GZJaJB8-38">
          <mxGeometry x="45" y="137.5" width="30" height="25" as="geometry" />
        </mxCell>
        <mxCell id="0ESUHfkSwqAkpGN6ZAxh-32" value="" style="shape=cube;whiteSpace=wrap;html=1;boundedLbl=1;backgroundOutline=1;darkOpacity=0.05;darkOpacity2=0.1;size=15;" vertex="1" parent="k_RozOxkvB2d1GZJaJB8-38">
          <mxGeometry x="80" y="125" width="35" height="35" as="geometry" />
        </mxCell>
        <mxCell id="0ESUHfkSwqAkpGN6ZAxh-50" style="edgeStyle=orthogonalEdgeStyle;rounded=0;orthogonalLoop=1;jettySize=auto;html=1;" edge="1" parent="k_RozOxkvB2d1GZJaJB8-38" source="0ESUHfkSwqAkpGN6ZAxh-47">
          <mxGeometry relative="1" as="geometry">
            <mxPoint x="57.5" y="390" as="targetPoint" />
          </mxGeometry>
        </mxCell>
        <mxCell id="0ESUHfkSwqAkpGN6ZAxh-47" value="NV1" style="shape=document;whiteSpace=wrap;html=1;boundedLbl=1;" vertex="1" parent="k_RozOxkvB2d1GZJaJB8-38">
          <mxGeometry x="42.5" y="320" width="30" height="25" as="geometry" />
        </mxCell>
        <mxCell id="0ESUHfkSwqAkpGN6ZAxh-48" value="" style="endArrow=none;html=1;rounded=0;" edge="1" parent="k_RozOxkvB2d1GZJaJB8-38">
          <mxGeometry width="50" height="50" relative="1" as="geometry">
            <mxPoint x="55" y="315" as="sourcePoint" />
            <mxPoint x="77.5" y="340" as="targetPoint" />
            <Array as="points">
              <mxPoint x="67.5" y="325" />
            </Array>
          </mxGeometry>
        </mxCell>
        <mxCell id="0ESUHfkSwqAkpGN6ZAxh-54" style="edgeStyle=orthogonalEdgeStyle;rounded=0;orthogonalLoop=1;jettySize=auto;html=1;" edge="1" parent="k_RozOxkvB2d1GZJaJB8-38" source="0ESUHfkSwqAkpGN6ZAxh-49">
          <mxGeometry relative="1" as="geometry">
            <mxPoint x="175" y="413" as="targetPoint" />
          </mxGeometry>
        </mxCell>
        <mxCell id="0ESUHfkSwqAkpGN6ZAxh-49" value="NV2" style="shape=document;whiteSpace=wrap;html=1;boundedLbl=1;" vertex="1" parent="k_RozOxkvB2d1GZJaJB8-38">
          <mxGeometry x="45" y="400" width="30" height="25" as="geometry" />
        </mxCell>
        <mxCell id="0ESUHfkSwqAkpGN6ZAxh-51" value="NV1" style="shape=document;whiteSpace=wrap;html=1;boundedLbl=1;" vertex="1" parent="k_RozOxkvB2d1GZJaJB8-38">
          <mxGeometry x="30" y="410" width="30" height="25" as="geometry" />
        </mxCell>
        <mxCell id="0ESUHfkSwqAkpGN6ZAxh-52" value="" style="endArrow=none;html=1;rounded=0;" edge="1" parent="k_RozOxkvB2d1GZJaJB8-38">
          <mxGeometry width="50" height="50" relative="1" as="geometry">
            <mxPoint x="42.5" y="405" as="sourcePoint" />
            <mxPoint x="65" y="430" as="targetPoint" />
            <Array as="points">
              <mxPoint x="55" y="415" />
            </Array>
          </mxGeometry>
        </mxCell>
        <mxCell id="0ESUHfkSwqAkpGN6ZAxh-70" style="edgeStyle=orthogonalEdgeStyle;rounded=0;orthogonalLoop=1;jettySize=auto;html=1;" edge="1" parent="k_RozOxkvB2d1GZJaJB8-38" source="0ESUHfkSwqAkpGN6ZAxh-66">
          <mxGeometry relative="1" as="geometry">
            <mxPoint x="45" y="540" as="targetPoint" />
          </mxGeometry>
        </mxCell>
        <mxCell id="0ESUHfkSwqAkpGN6ZAxh-66" value="" style="whiteSpace=wrap;html=1;aspect=fixed;" vertex="1" parent="k_RozOxkvB2d1GZJaJB8-38">
          <mxGeometry x="30" y="475" width="30" height="30" as="geometry" />
        </mxCell>
        <mxCell id="0ESUHfkSwqAkpGN6ZAxh-65" style="edgeStyle=orthogonalEdgeStyle;rounded=0;orthogonalLoop=1;jettySize=auto;html=1;" edge="1" parent="k_RozOxkvB2d1GZJaJB8-38" source="0ESUHfkSwqAkpGN6ZAxh-51" target="0ESUHfkSwqAkpGN6ZAxh-66">
          <mxGeometry relative="1" as="geometry">
            <mxPoint x="45" y="480" as="targetPoint" />
          </mxGeometry>
        </mxCell>
        <mxCell id="0ESUHfkSwqAkpGN6ZAxh-67" value="" style="endArrow=none;html=1;rounded=0;entryX=1;entryY=0;entryDx=0;entryDy=0;exitX=0;exitY=1;exitDx=0;exitDy=0;" edge="1" parent="k_RozOxkvB2d1GZJaJB8-38" source="0ESUHfkSwqAkpGN6ZAxh-66" target="0ESUHfkSwqAkpGN6ZAxh-66">
          <mxGeometry width="50" height="50" relative="1" as="geometry">
            <mxPoint x="70" y="550" as="sourcePoint" />
            <mxPoint x="120" y="500" as="targetPoint" />
          </mxGeometry>
        </mxCell>
        <mxCell id="0ESUHfkSwqAkpGN6ZAxh-68" value="" style="endArrow=none;html=1;rounded=0;entryX=0;entryY=0;entryDx=0;entryDy=0;exitX=1;exitY=1;exitDx=0;exitDy=0;" edge="1" parent="k_RozOxkvB2d1GZJaJB8-38" source="0ESUHfkSwqAkpGN6ZAxh-66" target="0ESUHfkSwqAkpGN6ZAxh-66">
          <mxGeometry width="50" height="50" relative="1" as="geometry">
            <mxPoint x="70" y="550" as="sourcePoint" />
            <mxPoint x="120" y="500" as="targetPoint" />
          </mxGeometry>
        </mxCell>
        <mxCell id="0ESUHfkSwqAkpGN6ZAxh-69" value="" style="shape=cube;whiteSpace=wrap;html=1;boundedLbl=1;backgroundOutline=1;darkOpacity=0.05;darkOpacity2=0.1;size=15;" vertex="1" parent="k_RozOxkvB2d1GZJaJB8-38">
          <mxGeometry x="85" y="420" width="35" height="35" as="geometry" />
        </mxCell>
        <mxCell id="0ESUHfkSwqAkpGN6ZAxh-73" style="edgeStyle=orthogonalEdgeStyle;rounded=0;orthogonalLoop=1;jettySize=auto;html=1;" edge="1" parent="k_RozOxkvB2d1GZJaJB8-38" source="0ESUHfkSwqAkpGN6ZAxh-71">
          <mxGeometry relative="1" as="geometry">
            <mxPoint x="47.5" y="595" as="targetPoint" />
          </mxGeometry>
        </mxCell>
        <mxCell id="0ESUHfkSwqAkpGN6ZAxh-71" value="4" style="ellipse;whiteSpace=wrap;html=1;aspect=fixed;" vertex="1" parent="k_RozOxkvB2d1GZJaJB8-38">
          <mxGeometry x="35" y="540" width="25" height="25" as="geometry" />
        </mxCell>
        <mxCell id="0ESUHfkSwqAkpGN6ZAxh-72" value="Sella" style="text;html=1;strokeColor=none;fillColor=none;align=center;verticalAlign=middle;whiteSpace=wrap;rounded=0;" vertex="1" parent="k_RozOxkvB2d1GZJaJB8-38">
          <mxGeometry x="50" y="535" width="60" height="30" as="geometry" />
        </mxCell>
        <mxCell id="0ESUHfkSwqAkpGN6ZAxh-79" style="edgeStyle=orthogonalEdgeStyle;rounded=0;orthogonalLoop=1;jettySize=auto;html=1;" edge="1" parent="k_RozOxkvB2d1GZJaJB8-38" source="0ESUHfkSwqAkpGN6ZAxh-74">
          <mxGeometry relative="1" as="geometry">
            <mxPoint x="100" y="630" as="targetPoint" />
          </mxGeometry>
        </mxCell>
        <mxCell id="0ESUHfkSwqAkpGN6ZAxh-74" value="NV2" style="shape=document;whiteSpace=wrap;html=1;boundedLbl=1;" vertex="1" parent="k_RozOxkvB2d1GZJaJB8-38">
          <mxGeometry x="40" y="600" width="30" height="25" as="geometry" />
        </mxCell>
        <mxCell id="0ESUHfkSwqAkpGN6ZAxh-75" value="NV1" style="shape=document;whiteSpace=wrap;html=1;boundedLbl=1;" vertex="1" parent="k_RozOxkvB2d1GZJaJB8-38">
          <mxGeometry x="25" y="610" width="30" height="25" as="geometry" />
        </mxCell>
        <mxCell id="0ESUHfkSwqAkpGN6ZAxh-76" value="" style="endArrow=none;html=1;rounded=0;" edge="1" parent="k_RozOxkvB2d1GZJaJB8-38">
          <mxGeometry width="50" height="50" relative="1" as="geometry">
            <mxPoint x="37.5" y="605" as="sourcePoint" />
            <mxPoint x="60" y="630" as="targetPoint" />
            <Array as="points">
              <mxPoint x="50" y="615" />
            </Array>
          </mxGeometry>
        </mxCell>
        <mxCell id="0ESUHfkSwqAkpGN6ZAxh-77" value="" style="endArrow=none;html=1;rounded=0;" edge="1" parent="k_RozOxkvB2d1GZJaJB8-38">
          <mxGeometry width="50" height="50" relative="1" as="geometry">
            <mxPoint x="60" y="590" as="sourcePoint" />
            <mxPoint x="75" y="615" as="targetPoint" />
            <Array as="points" />
          </mxGeometry>
        </mxCell>
        <mxCell id="0ESUHfkSwqAkpGN6ZAxh-78" value="" style="endArrow=none;html=1;rounded=0;" edge="1" parent="k_RozOxkvB2d1GZJaJB8-38">
          <mxGeometry width="50" height="50" relative="1" as="geometry">
            <mxPoint x="30" y="605" as="sourcePoint" />
            <mxPoint x="60" y="640" as="targetPoint" />
            <Array as="points" />
          </mxGeometry>
        </mxCell>
        <mxCell id="0ESUHfkSwqAkpGN6ZAxh-80" value="" style="triangle;whiteSpace=wrap;html=1;rotation=-90;" vertex="1" parent="k_RozOxkvB2d1GZJaJB8-38">
          <mxGeometry x="87.5" y="625" width="27.5" height="35" as="geometry" />
        </mxCell>
        <mxCell id="0ESUHfkSwqAkpGN6ZAxh-81" value="t" style="text;html=1;strokeColor=none;fillColor=none;align=center;verticalAlign=middle;whiteSpace=wrap;rounded=0;" vertex="1" parent="k_RozOxkvB2d1GZJaJB8-38">
          <mxGeometry x="87.5" y="640" width="30" height="15" as="geometry" />
        </mxCell>
        <mxCell id="k_RozOxkvB2d1GZJaJB8-41" value="ContadurÃ­a" style="swimlane;startSize=20;html=1;" parent="k_RozOxkvB2d1GZJaJB8-33" vertex="1">
          <mxGeometry x="525" y="25" width="170" height="1005" as="geometry" />
        </mxCell>
        <mxCell id="0ESUHfkSwqAkpGN6ZAxh-56" value="NV2" style="shape=document;whiteSpace=wrap;html=1;boundedLbl=1;" vertex="1" parent="k_RozOxkvB2d1GZJaJB8-41">
          <mxGeometry x="75" y="390" width="30" height="25" as="geometry" />
        </mxCell>
        <mxCell id="0ESUHfkSwqAkpGN6ZAxh-57" value="" style="endArrow=none;html=1;rounded=0;" edge="1" parent="k_RozOxkvB2d1GZJaJB8-41">
          <mxGeometry width="50" height="50" relative="1" as="geometry">
            <mxPoint x="90" y="385" as="sourcePoint" />
            <mxPoint x="112.5" y="410" as="targetPoint" />
            <Array as="points">
              <mxPoint x="102.5" y="395" />
            </Array>
          </mxGeometry>
        </mxCell>
        <mxCell id="0ESUHfkSwqAkpGN6ZAxh-62" style="edgeStyle=orthogonalEdgeStyle;rounded=0;orthogonalLoop=1;jettySize=auto;html=1;" edge="1" parent="k_RozOxkvB2d1GZJaJB8-41" source="0ESUHfkSwqAkpGN6ZAxh-60">
          <mxGeometry relative="1" as="geometry">
            <mxPoint x="75" y="460" as="targetPoint" />
          </mxGeometry>
        </mxCell>
        <mxCell id="0ESUHfkSwqAkpGN6ZAxh-60" value="NV2" style="shape=document;whiteSpace=wrap;html=1;boundedLbl=1;" vertex="1" parent="k_RozOxkvB2d1GZJaJB8-41">
          <mxGeometry x="60" y="400" width="30" height="25" as="geometry" />
        </mxCell>
        <mxCell id="0ESUHfkSwqAkpGN6ZAxh-61" value="" style="endArrow=none;html=1;rounded=0;" edge="1" parent="k_RozOxkvB2d1GZJaJB8-41">
          <mxGeometry width="50" height="50" relative="1" as="geometry">
            <mxPoint x="67.5" y="395" as="sourcePoint" />
            <mxPoint x="90" y="420" as="targetPoint" />
            <Array as="points">
              <mxPoint x="80" y="405" />
            </Array>
          </mxGeometry>
        </mxCell>
        <mxCell id="0ESUHfkSwqAkpGN6ZAxh-63" value="" style="triangle;whiteSpace=wrap;html=1;rotation=-90;" vertex="1" parent="k_RozOxkvB2d1GZJaJB8-41">
          <mxGeometry x="60" y="455" width="27.5" height="35" as="geometry" />
        </mxCell>
        <mxCell id="0ESUHfkSwqAkpGN6ZAxh-64" value="t" style="text;html=1;strokeColor=none;fillColor=none;align=center;verticalAlign=middle;whiteSpace=wrap;rounded=0;" vertex="1" parent="k_RozOxkvB2d1GZJaJB8-41">
          <mxGeometry x="60" y="470" width="30" height="15" as="geometry" />
        </mxCell>
        <mxCell id="0ESUHfkSwqAkpGN6ZAxh-99" value="NV3" style="shape=document;whiteSpace=wrap;html=1;boundedLbl=1;" vertex="1" parent="k_RozOxkvB2d1GZJaJB8-41">
          <mxGeometry x="75" y="745" width="30" height="25" as="geometry" />
        </mxCell>
        <mxCell id="0ESUHfkSwqAkpGN6ZAxh-100" value="" style="endArrow=none;html=1;rounded=0;" edge="1" parent="k_RozOxkvB2d1GZJaJB8-41">
          <mxGeometry width="50" height="50" relative="1" as="geometry">
            <mxPoint x="90" y="740" as="sourcePoint" />
            <mxPoint x="115" y="755" as="targetPoint" />
          </mxGeometry>
        </mxCell>
        <mxCell id="0ESUHfkSwqAkpGN6ZAxh-106" style="edgeStyle=orthogonalEdgeStyle;rounded=0;orthogonalLoop=1;jettySize=auto;html=1;" edge="1" parent="k_RozOxkvB2d1GZJaJB8-41" source="0ESUHfkSwqAkpGN6ZAxh-101">
          <mxGeometry relative="1" as="geometry">
            <mxPoint x="75" y="820" as="targetPoint" />
          </mxGeometry>
        </mxCell>
        <mxCell id="0ESUHfkSwqAkpGN6ZAxh-101" value="NV3" style="shape=document;whiteSpace=wrap;html=1;boundedLbl=1;" vertex="1" parent="k_RozOxkvB2d1GZJaJB8-41">
          <mxGeometry x="60" y="755" width="30" height="25" as="geometry" />
        </mxCell>
        <mxCell id="0ESUHfkSwqAkpGN6ZAxh-102" value="" style="endArrow=none;html=1;rounded=0;" edge="1" parent="k_RozOxkvB2d1GZJaJB8-41">
          <mxGeometry width="50" height="50" relative="1" as="geometry">
            <mxPoint x="75" y="750" as="sourcePoint" />
            <mxPoint x="100" y="765" as="targetPoint" />
          </mxGeometry>
        </mxCell>
        <mxCell id="0ESUHfkSwqAkpGN6ZAxh-103" value="NV3" style="shape=document;whiteSpace=wrap;html=1;boundedLbl=1;" vertex="1" parent="k_RozOxkvB2d1GZJaJB8-41">
          <mxGeometry x="45" y="765" width="30" height="25" as="geometry" />
        </mxCell>
        <mxCell id="0ESUHfkSwqAkpGN6ZAxh-104" value="" style="endArrow=none;html=1;rounded=0;" edge="1" parent="k_RozOxkvB2d1GZJaJB8-41">
          <mxGeometry width="50" height="50" relative="1" as="geometry">
            <mxPoint x="60" y="760" as="sourcePoint" />
            <mxPoint x="85" y="775" as="targetPoint" />
          </mxGeometry>
        </mxCell>
        <mxCell id="0ESUHfkSwqAkpGN6ZAxh-105" value="$" style="shape=tape;whiteSpace=wrap;html=1;strokeWidth=2;size=0.19" vertex="1" parent="k_RozOxkvB2d1GZJaJB8-41">
          <mxGeometry x="95" y="775" width="35" height="25" as="geometry" />
        </mxCell>
        <mxCell id="0ESUHfkSwqAkpGN6ZAxh-110" style="edgeStyle=orthogonalEdgeStyle;rounded=0;orthogonalLoop=1;jettySize=auto;html=1;" edge="1" parent="k_RozOxkvB2d1GZJaJB8-41" source="0ESUHfkSwqAkpGN6ZAxh-107">
          <mxGeometry relative="1" as="geometry">
            <mxPoint x="75" y="880" as="targetPoint" />
          </mxGeometry>
        </mxCell>
        <mxCell id="0ESUHfkSwqAkpGN6ZAxh-107" value="" style="whiteSpace=wrap;html=1;aspect=fixed;" vertex="1" parent="k_RozOxkvB2d1GZJaJB8-41">
          <mxGeometry x="62.5" y="820" width="25" height="25" as="geometry" />
        </mxCell>
        <mxCell id="0ESUHfkSwqAkpGN6ZAxh-108" value="" style="endArrow=none;html=1;rounded=0;entryX=1;entryY=0;entryDx=0;entryDy=0;exitX=0;exitY=1;exitDx=0;exitDy=0;" edge="1" parent="k_RozOxkvB2d1GZJaJB8-41" source="0ESUHfkSwqAkpGN6ZAxh-107" target="0ESUHfkSwqAkpGN6ZAxh-107">
          <mxGeometry width="50" height="50" relative="1" as="geometry">
            <mxPoint x="102.5" y="890" as="sourcePoint" />
            <mxPoint x="152.5" y="840" as="targetPoint" />
          </mxGeometry>
        </mxCell>
        <mxCell id="0ESUHfkSwqAkpGN6ZAxh-109" value="" style="endArrow=none;html=1;rounded=0;entryX=0;entryY=0;entryDx=0;entryDy=0;exitX=1;exitY=1;exitDx=0;exitDy=0;" edge="1" parent="k_RozOxkvB2d1GZJaJB8-41" source="0ESUHfkSwqAkpGN6ZAxh-107" target="0ESUHfkSwqAkpGN6ZAxh-107">
          <mxGeometry width="50" height="50" relative="1" as="geometry">
            <mxPoint x="102.5" y="890" as="sourcePoint" />
            <mxPoint x="152.5" y="840" as="targetPoint" />
          </mxGeometry>
        </mxCell>
        <mxCell id="0ESUHfkSwqAkpGN6ZAxh-111" value="6" style="ellipse;whiteSpace=wrap;html=1;aspect=fixed;" vertex="1" parent="k_RozOxkvB2d1GZJaJB8-41">
          <mxGeometry x="65" y="880" width="25" height="25" as="geometry" />
        </mxCell>
        <mxCell id="0ESUHfkSwqAkpGN6ZAxh-112" value="SV" style="shape=document;whiteSpace=wrap;html=1;boundedLbl=1;" vertex="1" parent="k_RozOxkvB2d1GZJaJB8-41">
          <mxGeometry x="25" y="930" width="40" height="30" as="geometry" />
        </mxCell>
        <mxCell id="0ESUHfkSwqAkpGN6ZAxh-113" value="SC" style="shape=document;whiteSpace=wrap;html=1;boundedLbl=1;" vertex="1" parent="k_RozOxkvB2d1GZJaJB8-41">
          <mxGeometry x="75" y="930" width="40" height="30" as="geometry" />
        </mxCell>
        <mxCell id="0ESUHfkSwqAkpGN6ZAxh-114" value="Registra" style="text;html=1;strokeColor=none;fillColor=none;align=center;verticalAlign=middle;whiteSpace=wrap;rounded=0;" vertex="1" parent="k_RozOxkvB2d1GZJaJB8-41">
          <mxGeometry x="2.5" y="870" width="60" height="30" as="geometry" />
        </mxCell>
        <mxCell id="0ESUHfkSwqAkpGN6ZAxh-3" style="edgeStyle=orthogonalEdgeStyle;rounded=0;orthogonalLoop=1;jettySize=auto;html=1;entryX=0;entryY=0.5;entryDx=0;entryDy=0;" edge="1" parent="k_RozOxkvB2d1GZJaJB8-33" source="0ESUHfkSwqAkpGN6ZAxh-2" target="0ESUHfkSwqAkpGN6ZAxh-4">
          <mxGeometry relative="1" as="geometry">
            <mxPoint x="165" y="67.5" as="targetPoint" />
          </mxGeometry>
        </mxCell>
        <mxCell id="0ESUHfkSwqAkpGN6ZAxh-1" value="Varios (TesorerÃ­a)" style="swimlane;startSize=20;html=1;" vertex="1" parent="k_RozOxkvB2d1GZJaJB8-33">
          <mxGeometry x="695" y="25" width="145" height="1005" as="geometry" />
        </mxCell>
        <mxCell id="0ESUHfkSwqAkpGN6ZAxh-119" style="edgeStyle=orthogonalEdgeStyle;rounded=0;orthogonalLoop=1;jettySize=auto;html=1;" edge="1" parent="0ESUHfkSwqAkpGN6ZAxh-1" source="0ESUHfkSwqAkpGN6ZAxh-116">
          <mxGeometry relative="1" as="geometry">
            <mxPoint x="60" y="965" as="targetPoint" />
          </mxGeometry>
        </mxCell>
        <mxCell id="0ESUHfkSwqAkpGN6ZAxh-116" value="NV3" style="shape=document;whiteSpace=wrap;html=1;boundedLbl=1;" vertex="1" parent="0ESUHfkSwqAkpGN6ZAxh-1">
          <mxGeometry x="45" y="915" width="30" height="25" as="geometry" />
        </mxCell>
        <mxCell id="0ESUHfkSwqAkpGN6ZAxh-117" value="" style="endArrow=none;html=1;rounded=0;" edge="1" parent="0ESUHfkSwqAkpGN6ZAxh-1">
          <mxGeometry width="50" height="50" relative="1" as="geometry">
            <mxPoint x="55" y="910" as="sourcePoint" />
            <mxPoint x="80" y="925" as="targetPoint" />
          </mxGeometry>
        </mxCell>
        <mxCell id="0ESUHfkSwqAkpGN6ZAxh-118" value="$" style="shape=tape;whiteSpace=wrap;html=1;strokeWidth=2;size=0.19" vertex="1" parent="0ESUHfkSwqAkpGN6ZAxh-1">
          <mxGeometry x="85" y="915" width="35" height="25" as="geometry" />
        </mxCell>
        <mxCell id="0ESUHfkSwqAkpGN6ZAxh-120" value="" style="triangle;whiteSpace=wrap;html=1;rotation=-90;" vertex="1" parent="0ESUHfkSwqAkpGN6ZAxh-1">
          <mxGeometry x="45" y="960" width="27.5" height="35" as="geometry" />
        </mxCell>
        <mxCell id="0ESUHfkSwqAkpGN6ZAxh-121" value="d" style="text;html=1;strokeColor=none;fillColor=none;align=center;verticalAlign=middle;whiteSpace=wrap;rounded=0;" vertex="1" parent="0ESUHfkSwqAkpGN6ZAxh-1">
          <mxGeometry x="45" y="975" width="30" height="15" as="geometry" />
        </mxCell>
        <mxCell id="0ESUHfkSwqAkpGN6ZAxh-20" value="" style="endArrow=none;html=1;rounded=0;entryX=0.938;entryY=0.971;entryDx=0;entryDy=0;entryPerimeter=0;" edge="1" parent="1" target="0ESUHfkSwqAkpGN6ZAxh-17">
          <mxGeometry width="50" height="50" relative="1" as="geometry">
            <mxPoint x="258" y="140" as="sourcePoint" />
            <mxPoint x="215" y="120" as="targetPoint" />
          </mxGeometry>
        </mxCell>
        <mxCell id="0ESUHfkSwqAkpGN6ZAxh-33" value="" style="edgeStyle=elbowEdgeStyle;elbow=horizontal;endArrow=classic;html=1;curved=0;rounded=0;endSize=8;startSize=8;" edge="1" parent="1">
          <mxGeometry width="50" height="50" relative="1" as="geometry">
            <mxPoint x="80" y="210" as="sourcePoint" />
            <mxPoint x="325" y="245.57142857142858" as="targetPoint" />
            <Array as="points">
              <mxPoint x="80" y="230" />
            </Array>
          </mxGeometry>
        </mxCell>
        <mxCell id="0ESUHfkSwqAkpGN6ZAxh-36" value="" style="endArrow=none;html=1;rounded=0;" edge="1" parent="1">
          <mxGeometry width="50" height="50" relative="1" as="geometry">
            <mxPoint x="355" y="225" as="sourcePoint" />
            <mxPoint x="380" y="240" as="targetPoint" />
          </mxGeometry>
        </mxCell>
        <mxCell id="0ESUHfkSwqAkpGN6ZAxh-38" value="" style="edgeStyle=elbowEdgeStyle;elbow=vertical;endArrow=classic;html=1;curved=0;rounded=0;endSize=8;startSize=8;exitX=1;exitY=0.75;exitDx=0;exitDy=0;" edge="1" parent="1" source="0ESUHfkSwqAkpGN6ZAxh-34">
          <mxGeometry width="50" height="50" relative="1" as="geometry">
            <mxPoint x="185" y="185" as="sourcePoint" />
            <mxPoint x="395" y="285" as="targetPoint" />
            <Array as="points">
              <mxPoint x="385" y="249" />
            </Array>
          </mxGeometry>
        </mxCell>
        <mxCell id="0ESUHfkSwqAkpGN6ZAxh-46" value="" style="edgeStyle=elbowEdgeStyle;elbow=horizontal;endArrow=classic;html=1;curved=0;rounded=0;endSize=8;startSize=8;" edge="1" parent="1">
          <mxGeometry width="50" height="50" relative="1" as="geometry">
            <mxPoint x="80" y="325" as="sourcePoint" />
            <mxPoint x="445" y="360" as="targetPoint" />
            <Array as="points">
              <mxPoint x="80" y="345" />
            </Array>
          </mxGeometry>
        </mxCell>
        <mxCell id="0ESUHfkSwqAkpGN6ZAxh-53" value="" style="endArrow=none;html=1;rounded=0;" edge="1" parent="1">
          <mxGeometry width="50" height="50" relative="1" as="geometry">
            <mxPoint x="480" y="420" as="sourcePoint" />
            <mxPoint x="495" y="445" as="targetPoint" />
            <Array as="points" />
          </mxGeometry>
        </mxCell>
        <mxCell id="0ESUHfkSwqAkpGN6ZAxh-58" value="NV2" style="shape=document;whiteSpace=wrap;html=1;boundedLbl=1;" vertex="1" parent="1">
          <mxGeometry x="600" y="440" width="30" height="25" as="geometry" />
        </mxCell>
        <mxCell id="0ESUHfkSwqAkpGN6ZAxh-59" value="" style="endArrow=none;html=1;rounded=0;" edge="1" parent="1">
          <mxGeometry width="50" height="50" relative="1" as="geometry">
            <mxPoint x="612.5" y="435" as="sourcePoint" />
            <mxPoint x="635" y="460" as="targetPoint" />
            <Array as="points">
              <mxPoint x="625" y="445" />
            </Array>
          </mxGeometry>
        </mxCell>
        <mxCell id="0ESUHfkSwqAkpGN6ZAxh-85" value="" style="edgeStyle=elbowEdgeStyle;elbow=horizontal;endArrow=classic;html=1;curved=0;rounded=0;endSize=8;startSize=8;" edge="1" parent="1">
          <mxGeometry width="50" height="50" relative="1" as="geometry">
            <mxPoint x="455" y="670" as="sourcePoint" />
            <mxPoint x="100" y="695" as="targetPoint" />
            <Array as="points">
              <mxPoint x="455" y="685" />
            </Array>
          </mxGeometry>
        </mxCell>
        <mxCell id="0ESUHfkSwqAkpGN6ZAxh-115" value="" style="edgeStyle=elbowEdgeStyle;elbow=horizontal;endArrow=classic;html=1;curved=0;rounded=0;endSize=8;startSize=8;exitX=0.5;exitY=1;exitDx=0;exitDy=0;" edge="1" parent="1" source="0ESUHfkSwqAkpGN6ZAxh-111">
          <mxGeometry width="50" height="50" relative="1" as="geometry">
            <mxPoint x="690" y="910" as="sourcePoint" />
            <mxPoint x="745" y="955" as="targetPoint" />
            <Array as="points">
              <mxPoint x="633" y="945" />
            </Array>
          </mxGeometry>
        </mxCell>
      </root>
    </mxGraphModel>
  </diagram>
</mxfile>
